<svg width="203" height="60" xmlns="http://www.w3.org/2000/svg" preserveAspectRatio="xMidYMid meet">

 <g>
  <title>background</title>
  <rect fill="none" id="canvas_background" height="62" width="205" y="-1" x="-1"/>
 </g>
 <g>
  <title>Layer 1</title>
  <g id="svg_1" fill="#000000" transform="translate(0,71) scale(0.10000000149011612,-0.10000000149011612) ">
   <path fill="#ff4400" id="svg_2" d="m1008,633l-908,-3l0,-220l0,-220l775,0c682,0 775,2 775,15c0,13 -91,15 -760,15l-760,0l0,190l0,190l890,0l890,0l0,-115c0,-96 3,-115 15,-115c13,0 15,22 15,135c0,103 -3,134 -12,133c-7,-2 -421,-4 -920,-5z"/>
   <path fill="#ff4400" id="svg_3" d="m220,480c0,-49 12,-52 28,-7c16,44 15,47 -8,47c-17,0 -20,-7 -20,-40z"/>
   <path fill="#ff4400" id="svg_4" d="m280,420c0,-60 -4,-100 -10,-100c-5,0 -10,-4 -10,-10c0,-5 26,-10 57,-10c44,0 54,3 45,12c-8,8 -12,47 -12,110l0,98l-35,0l-35,0l0,-100z"/>
   <path fill="#ff4400" id="svg_5" d="m360,511c0,-6 5,-13 10,-16c6,-3 10,-15 10,-25c0,-10 5,-22 10,-25c6,-4 10,10 10,34c0,34 -3,41 -20,41c-11,0 -20,-4 -20,-9z"/>
   <path fill="#ff4400" id="svg_6" d="m490,503c0,-10 6,-44 14,-75c13,-55 12,-58 -5,-58c-11,0 -19,-4 -19,-10c0,-5 9,-10 19,-10c23,0 34,-23 18,-39c-8,-8 4,-11 45,-11l56,0l-13,28c-7,15 -21,64 -30,110l-18,82l-33,0c-26,0 -34,-4 -34,-17z"/>
   <path fill="#ff4400" id="svg_7" d="m630,510c0,-5 4,-10 9,-10c5,0 24,-45 42,-100c19,-55 36,-100 39,-100c7,0 40,114 40,137c0,14 -2,15 -9,5c-5,-9 -12,1 -21,32c-12,46 -13,46 -56,46c-24,0 -44,-4 -44,-10z"/>
   <path fill="#ff4400" id="svg_8" d="m780,426c0,-53 -4,-98 -10,-101c-23,-14 -7,-25 38,-25l47,0l0,110l0,110l-37,0l-38,0l0,-94z"/>
   <path fill="#ff4400" id="svg_9" d="m898,508c16,-16 16,-180 0,-196c-9,-9 -1,-12 38,-12l49,0l0,110l0,110l-49,0c-39,0 -47,-3 -38,-12z"/>
   <path fill="#ff4400" id="svg_10" d="m1035,410l0,-110l38,0l37,0l0,100c0,60 4,100 10,100c6,0 10,5 10,10c0,6 -21,10 -47,10l-48,0l0,-110z"/>
   <path fill="#ff4400" id="svg_11" d="m1208,508c16,-16 16,-180 0,-196c-9,-9 -2,-12 35,-12l47,0l0,110l0,110l-47,0c-37,0 -44,-3 -35,-12z"/>
   <path fill="#ff4400" id="svg_12" d="m1300,510c0,-5 5,-10 10,-10c15,0 12,-77 -2,-84c-10,-5 -10,-7 0,-12c14,-7 17,-84 2,-84c-5,0 -10,-4 -10,-10c0,-18 59,-11 80,10c26,26 25,46 -4,73c-24,22 -24,23 -5,35c23,15 25,55 3,76c-17,18 -74,22 -74,6z"/>
   <path fill="#ff4400" id="svg_13" d="m1454,497c-20,-18 -28,-34 -31,-73c-5,-57 10,-92 49,-113c29,-17 49,-8 30,11c-15,15 -16,164 -2,173c6,3 10,10 10,16c0,16 -28,10 -56,-14z"/>
   <path fill="#ff4400" id="svg_14" d="m1528,508c7,-7 12,-44 12,-98c0,-54 -5,-91 -12,-98c-9,-9 -8,-12 8,-12c43,1 74,47 74,110c0,67 -30,110 -78,110c-12,0 -13,-3 -4,-12z"/>
   <path fill="#ff4400" id="svg_15" d="m1630,480c0,-22 5,-40 10,-40c6,0 10,9 10,19c0,11 5,23 10,26c18,11 11,35 -10,35c-17,0 -20,-7 -20,-40z"/>
   <path fill="#ff4400" id="svg_16" d="m1690,426c0,-53 -4,-98 -10,-101c-24,-15 -6,-25 41,-25c43,0 50,3 45,16c-3,9 -6,58 -6,110l0,94l-35,0l-35,0l0,-94z"/>
   <path fill="#ff4400" id="svg_17" d="m1775,503c4,-10 10,-28 12,-40c8,-37 23,-26 23,17c0,34 -3,40 -21,40c-16,0 -19,-4 -14,-17z"/>
   <path fill="#ff4400" id="svg_18" d="m460,408c-6,-29 -21,-65 -31,-80l-20,-28l36,0c31,0 34,2 24,18c-9,14 -8,31 4,73c9,29 12,58 8,62c-5,5 -14,-15 -21,-45z"/>
   <path fill="#ff4400" id="svg_19" d="m650,379c0,-30 -5,-60 -12,-67c-9,-9 -5,-12 20,-12c31,0 42,13 22,25c-5,3 -10,23 -10,43c0,20 -5,44 -10,52c-7,11 -10,-1 -10,-41z"/>
   <path fill="#ff4400" id="svg_20" d="m1162,355c-7,-14 -19,-28 -27,-31c-25,-10 -17,-24 15,-24c28,0 30,2 30,40c0,47 -3,49 -18,15z"/>
  </g>
 </g>
</svg>
