<svg version="1.0" xmlns="http://www.w3.org/2000/svg"
 width="213.000000pt" height="71.000000pt" viewBox="0 0 213.000000 71.000000"
 preserveAspectRatio="xMidYMid meet">

<g transform="translate(0.000000,71.000000) scale(0.100000,-0.100000)"
fill="#000000" stroke="none">
<path d="M1058 633 l-908 -3 0 -220 0 -220 775 0 c682 0 775 2 775 15 0 13
-91 15 -760 15 l-760 0 0 190 0 190 890 0 890 0 0 -115 c0 -96 3 -115 15 -115
13 0 15 22 15 135 0 103 -3 134 -12 133 -7 -2 -421 -4 -920 -5z"/>
<path d="M270 480 c0 -49 12 -52 28 -7 16 44 15 47 -8 47 -17 0 -20 -7 -20
-40z"/>
<path d="M330 420 c0 -60 -4 -100 -10 -100 -5 0 -10 -4 -10 -10 0 -5 26 -10
57 -10 44 0 54 3 45 12 -8 8 -12 47 -12 110 l0 98 -35 0 -35 0 0 -100z"/>
<path d="M410 511 c0 -6 5 -13 10 -16 6 -3 10 -15 10 -25 0 -10 5 -22 10 -25
6 -4 10 10 10 34 0 34 -3 41 -20 41 -11 0 -20 -4 -20 -9z"/>
<path d="M540 503 c0 -10 6 -44 14 -75 13 -55 12 -58 -5 -58 -11 0 -19 -4 -19
-10 0 -5 9 -10 19 -10 23 0 34 -23 18 -39 -8 -8 4 -11 45 -11 l56 0 -13 28
c-7 15 -21 64 -30 110 l-18 82 -33 0 c-26 0 -34 -4 -34 -17z"/>
<path d="M680 510 c0 -5 4 -10 9 -10 5 0 24 -45 42 -100 19 -55 36 -100 39
-100 7 0 40 114 40 137 0 14 -2 15 -9 5 -5 -9 -12 1 -21 32 -12 46 -13 46 -56
46 -24 0 -44 -4 -44 -10z"/>
<path d="M830 426 c0 -53 -4 -98 -10 -101 -23 -14 -7 -25 38 -25 l47 0 0 110
0 110 -37 0 -38 0 0 -94z"/>
<path d="M948 508 c16 -16 16 -180 0 -196 -9 -9 -1 -12 38 -12 l49 0 0 110 0
110 -49 0 c-39 0 -47 -3 -38 -12z"/>
<path d="M1085 410 l0 -110 38 0 37 0 0 100 c0 60 4 100 10 100 6 0 10 5 10
10 0 6 -21 10 -47 10 l-48 0 0 -110z"/>
<path d="M1258 508 c16 -16 16 -180 0 -196 -9 -9 -2 -12 35 -12 l47 0 0 110 0
110 -47 0 c-37 0 -44 -3 -35 -12z"/>
<path d="M1350 510 c0 -5 5 -10 10 -10 15 0 12 -77 -2 -84 -10 -5 -10 -7 0
-12 14 -7 17 -84 2 -84 -5 0 -10 -4 -10 -10 0 -18 59 -11 80 10 26 26 25 46
-4 73 -24 22 -24 23 -5 35 23 15 25 55 3 76 -17 18 -74 22 -74 6z"/>
<path d="M1504 497 c-20 -18 -28 -34 -31 -73 -5 -57 10 -92 49 -113 29 -17 49
-8 30 11 -15 15 -16 164 -2 173 6 3 10 10 10 16 0 16 -28 10 -56 -14z"/>
<path d="M1578 508 c7 -7 12 -44 12 -98 0 -54 -5 -91 -12 -98 -9 -9 -8 -12 8
-12 43 1 74 47 74 110 0 67 -30 110 -78 110 -12 0 -13 -3 -4 -12z"/>
<path d="M1680 480 c0 -22 5 -40 10 -40 6 0 10 9 10 19 0 11 5 23 10 26 18 11
11 35 -10 35 -17 0 -20 -7 -20 -40z"/>
<path d="M1740 426 c0 -53 -4 -98 -10 -101 -24 -15 -6 -25 41 -25 43 0 50 3
45 16 -3 9 -6 58 -6 110 l0 94 -35 0 -35 0 0 -94z"/>
<path d="M1825 503 c4 -10 10 -28 12 -40 8 -37 23 -26 23 17 0 34 -3 40 -21
40 -16 0 -19 -4 -14 -17z"/>
<path d="M510 408 c-6 -29 -21 -65 -31 -80 l-20 -28 36 0 c31 0 34 2 24 18 -9
14 -8 31 4 73 9 29 12 58 8 62 -5 5 -14 -15 -21 -45z"/>
<path d="M700 379 c0 -30 -5 -60 -12 -67 -9 -9 -5 -12 20 -12 31 0 42 13 22
25 -5 3 -10 23 -10 43 0 20 -5 44 -10 52 -7 11 -10 -1 -10 -41z"/>
<path d="M1212 355 c-7 -14 -19 -28 -27 -31 -25 -10 -17 -24 15 -24 28 0 30 2
30 40 0 47 -3 49 -18 15z"/>
</g>
</svg>
