<svg width="203" height="37" xmlns="http://www.w3.org/2000/svg" preserveAspectRatio="xMidYMid meet">

 <g>
  <title>background</title>
  <rect fill="none" id="canvas_background" height="39" width="205" y="-1" x="-1"/>
 </g>
 <g>
  <title>Layer 1</title>
  <g stroke="null" id="svg_1" fill="#000000" transform="translate(0,71) scale(0.10000000149011612,-0.10000000149011612) ">
   <path stroke="null" fill="#ff4400" id="svg_2" d="m1360.108707,662.83879l-597.108715,-1.901843l0,-139.468473l0,-139.468473l509.646755,0c448.489145,0 509.646755,1.267895 509.646755,9.509214c0,8.241319 -59.842393,9.509214 -499.782625,9.509214l-499.782625,0l0,120.450045l0,120.450045l585.271758,0l585.271758,0l0,-72.903975c0,-60.85897 1.972826,-72.903975 9.864131,-72.903975c8.548913,0 9.864131,13.946847 9.864131,85.582927c0,65.296603 -1.972826,84.948979 -7.891305,84.315031c-4.603261,-1.267895 -276.85327,-2.53579 -605.000019,-3.169738z"/>
   <path stroke="null" fill="#ff4400" id="svg_3" d="m841.913039,565.844806c0,-31.063433 7.891305,-32.965275 18.413044,-4.437633c10.521739,27.893695 9.864131,29.795537 -5.26087,29.795537c-11.179348,0 -13.152174,-4.437633 -13.152174,-25.357904z"/>
   <path stroke="null" fill="#ff4400" id="svg_4" d="m881.369562,527.80795c0,-38.036856 -2.630435,-63.39476 -6.576087,-63.39476c-3.288044,0 -6.576087,-2.53579 -6.576087,-6.339476c0,-3.169738 17.097827,-6.339476 37.483697,-6.339476c28.934784,0 35.510871,1.901843 29.592392,7.607371c-5.26087,5.071581 -7.891305,29.795537 -7.891305,69.734237l0,62.126865l-23.016305,0l-23.016305,0l0,-63.39476z"/>
   <path stroke="null" fill="#ff4400" id="svg_5" d="m933.978259,585.497182c0,-3.803686 3.288044,-8.241319 6.576087,-10.143162c3.945652,-1.901843 6.576087,-9.509214 6.576087,-15.84869c0,-6.339476 3.288044,-13.946847 6.576087,-15.84869c3.945652,-2.53579 6.576087,6.339476 6.576087,21.554219c0,21.554219 -1.972826,25.991852 -13.152174,25.991852c-7.233696,0 -13.152174,-2.53579 -13.152174,-5.705528z"/>
   <path stroke="null" fill="#ff4400" id="svg_6" d="m1019.467392,580.425601c0,-6.339476 3.945652,-27.893695 9.206522,-47.54607c8.548913,-34.867118 7.891305,-36.768961 -3.288044,-36.768961c-7.233696,0 -12.494566,-2.53579 -12.494566,-6.339476c0,-3.169738 5.918478,-6.339476 12.494566,-6.339476c15.125,0 22.358696,-14.580795 11.836957,-24.723957c-5.26087,-5.071581 2.630435,-6.973424 29.592392,-6.973424l36.826088,0l-8.548913,17.750533c-4.603261,9.509214 -13.809783,40.572647 -19.728261,69.734237l-11.836957,51.983704l-21.701088,0c-17.097827,0 -22.358696,-2.53579 -22.358696,-10.777109z"/>
   <path stroke="null" fill="#ff4400" id="svg_7" d="m1111.532612,584.863234c0,-3.169738 2.630435,-6.339476 5.918478,-6.339476c3.288044,0 15.782609,-28.527642 27.619566,-63.39476c12.494566,-34.867118 23.673914,-63.39476 25.64674,-63.39476c4.603261,0 26.304349,72.270027 26.304349,86.850822c0,8.875266 -1.315217,9.509214 -5.918478,3.169738c-3.288044,-5.705528 -7.891305,0.633948 -13.809783,20.286323c-7.891305,29.16159 -8.548913,29.16159 -36.826088,29.16159c-15.782609,0 -28.934784,-2.53579 -28.934784,-6.339476z"/>
   <path stroke="null" fill="#ff4400" id="svg_8" d="m1210.17392,531.611635c0,-33.599223 -2.630435,-62.126865 -6.576087,-64.028708c-15.125,-8.875266 -4.603261,-15.84869 24.989131,-15.84869l30.90761,0l0,69.734237l0,69.734237l-24.331523,0l-24.989131,0l0,-59.591075z"/>
   <path stroke="null" fill="#ff4400" id="svg_9" d="m1287.771749,583.595339c10.521739,-10.143162 10.521739,-114.110569 0,-124.25373c-5.918478,-5.705528 -0.657609,-7.607371 24.989131,-7.607371l32.222827,0l0,69.734237l0,69.734237l-32.222827,0c-25.64674,0 -30.90761,-1.901843 -24.989131,-7.607371z"/>
   <path stroke="null" fill="#ff4400" id="svg_10" d="m1377.864143,521.468474l0,-69.734237l24.989131,0l24.331523,0l0,63.39476c0,38.036856 2.630435,63.39476 6.576087,63.39476c3.945652,0 6.576087,3.169738 6.576087,6.339476c0,3.803686 -13.809783,6.339476 -30.90761,6.339476l-31.565218,0l0,-69.734237z"/>
   <path stroke="null" fill="#ff4400" id="svg_11" d="m1491.630451,583.595339c10.521739,-10.143162 10.521739,-114.110569 0,-124.25373c-5.918478,-5.705528 -1.315217,-7.607371 23.016305,-7.607371l30.90761,0l0,69.734237l0,69.734237l-30.90761,0c-24.331523,0 -28.934784,-1.901843 -23.016305,-7.607371z"/>
   <path stroke="null" fill="#ff4400" id="svg_12" d="m1552.130453,584.863234c0,-3.169738 3.288044,-6.339476 6.576087,-6.339476c9.864131,0 7.891305,-48.813966 -1.315217,-53.251599c-6.576087,-3.169738 -6.576087,-4.437633 0,-7.607371c9.206522,-4.437633 11.179348,-53.251599 1.315217,-53.251599c-3.288044,0 -6.576087,-2.53579 -6.576087,-6.339476c0,-11.411057 38.798914,-6.973424 52.608697,6.339476c17.097827,16.482638 16.440218,29.16159 -2.630435,46.278175c-15.782609,13.946847 -15.782609,14.580795 -3.288044,22.188166c15.125,9.509214 16.440218,34.867118 1.972826,48.180018c-11.179348,11.411057 -48.663045,13.946847 -48.663045,3.803686z"/>
   <path stroke="null" fill="#ff4400" id="svg_13" d="m1653.402195,576.621915c-13.152174,-11.411057 -18.413044,-21.554219 -20.38587,-46.278175c-3.288044,-36.135013 6.576087,-58.32318 32.222827,-71.636079c19.070653,-10.777109 32.222827,-5.071581 19.728261,6.973424c-9.864131,9.509214 -10.521739,103.967407 -1.315217,109.672936c3.945652,1.901843 6.576087,6.339476 6.576087,10.143162c0,10.143162 -18.413044,6.339476 -36.826088,-8.875266z"/>
   <path stroke="null" fill="#ff4400" id="svg_14" d="m1702.06524,583.595339c4.603261,-4.437633 7.891305,-27.893695 7.891305,-62.126865c0,-34.233171 -3.288044,-57.689232 -7.891305,-62.126865c-5.918478,-5.705528 -5.26087,-7.607371 5.26087,-7.607371c28.277175,0.633948 48.663045,29.795537 48.663045,69.734237c0,42.47449 -19.728261,69.734237 -51.29348,69.734237c-7.891305,0 -8.548913,-1.901843 -2.630435,-7.607371z"/>
   <path stroke="null" fill="#ff4400" id="svg_15" d="m1769.141329,565.844806c0,-13.946847 3.288044,-25.357904 6.576087,-25.357904c3.945652,0 6.576087,5.705528 6.576087,12.045004c0,6.973424 3.288044,14.580795 6.576087,16.482638c11.836957,6.973424 7.233696,22.188166 -6.576087,22.188166c-11.179348,0 -13.152174,-4.437633 -13.152174,-25.357904z"/>
   <path stroke="null" fill="#ff4400" id="svg_16" d="m1808.597852,531.611635c0,-33.599223 -2.630435,-62.126865 -6.576087,-64.028708c-15.782609,-9.509214 -3.945652,-15.84869 26.961957,-15.84869c28.277175,0 32.880436,1.901843 29.592392,10.143162c-1.972826,5.705528 -3.945652,36.768961 -3.945652,69.734237l0,59.591075l-23.016305,0l-23.016305,0l0,-59.591075z"/>
   <path stroke="null" fill="#ff4400" id="svg_17" d="m1864.494593,580.425601c2.630435,-6.339476 6.576087,-17.750533 7.891305,-25.357904c5.26087,-23.456061 15.125,-16.482638 15.125,10.777109c0,21.554219 -1.972826,25.357904 -13.809783,25.357904c-10.521739,0 -12.494566,-2.53579 -9.206522,-10.777109z"/>
   <path stroke="null" fill="#ff4400" id="svg_18" d="m999.739131,520.200578c-3.945652,-18.384481 -13.809783,-41.206594 -20.38587,-50.715808l-13.152174,-17.750533l23.673914,0c20.38587,0 22.358696,1.267895 15.782609,11.411057c-5.918478,8.875266 -5.26087,19.652376 2.630435,46.278175c5.918478,18.384481 7.891305,36.768961 5.26087,39.304751c-3.288044,3.169738 -9.206522,-9.509214 -13.809783,-28.527642z"/>
   <path stroke="null" fill="#ff4400" id="svg_19" d="m1124.684787,501.816098c0,-19.018428 -3.288044,-38.036856 -7.891305,-42.47449c-5.918478,-5.705528 -3.288044,-7.607371 13.152174,-7.607371c20.38587,0 27.619566,8.241319 14.467392,15.84869c-3.288044,1.901843 -6.576087,14.580795 -6.576087,27.259747c0,12.678952 -3.288044,27.893695 -6.576087,32.965275c-4.603261,6.973424 -6.576087,-0.633948 -6.576087,-25.991852z"/>
   <path stroke="null" fill="#ff4400" id="svg_20" d="m1461.38045,486.601355c-4.603261,-8.875266 -12.494566,-17.750533 -17.755435,-19.652376c-16.440218,-6.339476 -11.179348,-15.214743 9.864131,-15.214743c18.413044,0 19.728261,1.267895 19.728261,25.357904c0,29.795537 -1.972826,31.063433 -11.836957,9.509214z"/>
  </g>
  <text font-weight="bold" stroke="#000" transform="matrix(0.5709207146250134,0,0,0.7805714011192321,-0.5458718103682568,5.437714966014028) " xml:space="preserve" text-anchor="start" font-family="'Courier New', Courier, monospace" font-size="32" id="svg_21" y="27.134593" x="10.84435" stroke-width="0" fill="#ff0000">Blog @</text>
 </g>
</svg>
